# AST/ASF file generated using VICON BodyLanguage
# -----------------------------------------------
:version 1.10
:name VICON
:units
  mass 1.0
  length 0.45
  angle deg
:documentation
   .ast/.asf automatically generated from VICON data using
   VICON BodyBuilder and BodyLanguage model FoxedUp or BRILLIANT.MOD
:root
   order TX TY TZ RX RY RZ
   axis XYZ
   position 0 0 0  
   orientation 0 -0 0 
:bonedata
  begin
     id 1 
     name lhipjoint
     direction 0.515797 -0.759363 0.396637 
     length 2.47888 
     axis 0 -0 0  XYZ
  end
  begin
     id 2 
     name lfemur
     direction 0.34202 -0.939693 0  
     length 6.81885  
     axis 0 -0 20  XYZ
    dof rx ry rz
    limits (-160.0 20.0)
           (-70.0 70.0)
           (-60.0 70.0)
  end
  begin
     id 3 
     name ltibia
     direction 0.342037 -0.939687 0   
     length 7.89258   
     axis 0 -0 20   XYZ
    dof rx
    limits (-10.0 170.0)
  end
  begin
     id 4 
     name lfoot
     direction 0.173497 -0.476678 0.861787   
     length 2.51543   
     axis -90 -1.13533e-015 20   XYZ
    dof rx rz
    limits (-45.0 90.0)
           (-70.0 20.0)
  end
  begin
     id 5 
     name ltoes
     direction 1.53564e-011 -4.21897e-011 1   
     length 1.21388   
     axis -90 -1.13533e-015 20   XYZ
    dof rx
    limits (-90.0 20.0)
  end
  begin
     id 6 
     name rhipjoint
     direction -0.489454 -0.772941 0.403729   
     length 2.43534  
     axis 0 -0 0  XYZ 
  end
  begin
     id 7 
     name rfemur
     direction -0.34202 -0.939693 0   
     length 7.10357   
     axis 0 -0 -20   XYZ
    dof rx ry rz
    limits (-160.0 20.0)
           (-70.0 70.0)
           (-70.0 60.0)
  end
  begin
     id 8 
     name rtibia
     direction -0.34202 -0.939693 0   
     length 9.16127   
     axis 0 -0 -20   XYZ
    dof rx
    limits (-10.0 170.0)
 end
 begin
     id 9 
     name rfoot
     direction -0.270974 -0.748671 0.605033   
     length 1.74894  
     axis -90 1.13533e-015 -20   XYZ
    dof rx rz
    limits (-45.0 90.0)
           (-20.0 70.0)
  end
  begin
     id 10 
     name rtoes
     direction -1.53557e-011 -4.21759e-011 1   
     length 0.787585   
     axis -90 1.13533e-015 -20   XYZ
    dof rx
    limits (-90.0 20.0)
  end
  begin
     id 11 
     name lowerback
     direction -0.0140249 0.999561 0.0260968   
     length 2.16963   
     axis 0 -0 0   XYZ
    dof rx ry rz
    limits (-20.0 45.0)
           (-30.0 30.0)
           (-30.0 30.0)
  end
  begin
     id 12 
     name upperback
     direction 0.00860018 0.999959 -0.002711   
     length 2.1726   
     axis 0 -0 0   XYZ
    dof rx ry rz
    limits (-20.0 45.0)
           (-30.0 30.0)
           (-30.0 30.0)
  end
  begin
     id 13 
     name thorax
     direction 0.015211 0.999782 -0.0143191   
     length 2.17061   
     axis 0 -0 0   XYZ
    dof rx ry rz
    limits (-20.0 45.0)
           (-30.0 30.0)
           (-30.0 30.0)
  end
  begin
     id 14 
     name lowerneck
     direction -0.0140143 0.999447 0.030145   
     length 2.26749   
     axis 0 -0 0   XYZ
    dof rx ry rz
    limits (-20.0 45.0)
           (-30.0 30.0)
           (-30.0 30.0)
  end
  begin
     id 15 
     name upperneck
     direction 0.118062 0.961438 -0.248392   
     length 2.22728   
     axis 0 -0 0   XYZ
    dof rx ry rz
    limits (-20.0 45.0)
           (-30.0 30.0)
           (-30.0 30.0)
  end
  begin
     id 16
     name head
     direction 0.0431885 0.9954 -0.085514  
     length 2.28786  
     axis 0 -0 0   XYZ
    dof rx ry rz
    limits (-20.0 45.0)
           (-30.0 30.0)
           (-30.0 30.0)
  end
  begin
     id 17 
     name lclavicle
     direction 0.912126 0.409548 0.0172323  
     length 4.31571  
     axis 0 -0 0   XYZ
    dof ry rz
    limits (-20.0 10.0)
           (0.0 20.0)
  end
  begin
     id 18 
     name lhumerus
     direction 1 -4.48977e-011 1.93091e-027   
     length 5.13658   
     axis 180 -30 -90   XYZ
    dof rx ry rz
    limits (-60.0 90.0)
           (-90.0 90.0)
           (-90.0 90.0)
  end
  begin
     id 19
     name lradius
     direction 1 -4.48916e-011 6.84018e-027   
     length 3.22473   
     axis 180 -30 -90   XYZ
    dof rx
    limits (-10.0 170.0)
  end
  begin
     id 20
     name lwrist
     direction 1 -4.48987e-011 7.01981e-027   
     length 1.61236   
     axis -4.37994e-015 90 90   XYZ
    dof ry
    limits (-180.0 0.0)
 end
  begin
     id 21 
     name lhand
     direction 1 -4.49037e-011 1.40335e-026   
     length 0.936406   
     axis -8.96029e-015 90 90   XYZ
    dof rx rz
    limits (-90.0 90.0)
           (-45.0 45.0)
  end
  begin
     id 22 
     name lfingers
     direction 1 -4.48886e-011 2.8104e-026   
     length 0.754955   
     axis -1.79203e-014 90 90   XYZ
    dof rx
    limits (0.0 90.0)
  end
  begin
     id 23
     name lthumb
     direction 0.707107 -6.34937e-011 0.707107   
     length 1.08397   
     axis -90 45 -4.48555e-014   XYZ
    dof rx rz
    limits (-45.0 45.0)
           (-45.0 45.0)
  end
  begin
     id 24 
     name rclavicle
     direction -0.947962 0.317997 0.0156638   
     length 4.86918  
     axis 0 -0 0   XYZ 
    dof ry rz
    limits (-10.0 20.0)
           (-20.0 0.0)
  end
  begin
     id 25 
     name rhumerus
     direction -1 -4.48951e-011 2.80534e-018  
     length 5.60911   
     axis 180 30 90   XYZ
    dof rx ry rz
    limits (-90.0 60.0)
           (-90.0 90.0)
           (-90.0 90.0)
  end
  begin
     id 26 
     name rradius
     direction -1 -4.4898e-011 2.11315e-027   
     length 3.38704   
     axis 180 30 90   XYZ
    dof rx
    limits (-10.0 170.0)
  end
  begin
     id 27 
     name rwrist
     direction -1 -4.48933e-011 7.02314e-027   
     length 1.69352   
     axis -4.37994e-015 -90 -90   XYZ
    dof ry
    limits (-180.0 0.0)
  end
  begin
     id 28
     name rhand
     direction -1 -4.48937e-011 1.40458e-026   
     length 0.755878   
     axis -8.96029e-015 -90 -90   XYZ
    dof rx rz
    limits (-90.0 90.0)
           (-45.0 45.0)
  end
  begin
     id 29
     name rfingers
     direction -1 -4.4901e-011 2.80737e-026   
     length 0.609409   
     axis -1.79203e-014 -90 -90   XYZ
    dof rx
    limits (0.0 90.0)
  end
  begin
     id 30
     name rthumb
     direction -0.707107 -6.34968e-011 0.707107   
     length 0.874992   
     axis -90 -45 4.48555e-014   XYZ
    dof rx rz
    limits (-45.0 45.0)
           (-45.0 45.0)
  end
:hierarchy
  begin
    root lhipjoint rhipjoint lowerback
    lhipjoint lfemur
    lfemur ltibia
    ltibia lfoot
    lfoot ltoes
    rhipjoint rfemur
    rfemur rtibia
    rtibia rfoot
    rfoot rtoes
    lowerback upperback
    upperback thorax
    thorax lowerneck lclavicle rclavicle
    lowerneck upperneck
    upperneck head
    lclavicle lhumerus
    lhumerus lradius
    lradius lwrist
    lwrist lhand lthumb
    lhand lfingers
    rclavicle rhumerus
    rhumerus rradius
    rradius rwrist
    rwrist rhand rthumb
    rhand rfingers
  end

#!OML:ASF C:\ViconDB\ViconDB\414\Spring2016\041811\Spring2016.ASF
:FULLY-SPECIFIED
:DEGREES
78
root 6.7188 16.9664 21.007 -168.338 3.42411 -180.13
lowerback 15.2493 2.20129 -4.16224
upperback 1.6899 2.39151 -1.82181
thorax -6.8334 1.38013 -0.0992052
lowerneck -14.243 -6.10744 -13.8473
upperneck 13.1162 -9.38981 19.558
head 8.04906 -3.86839 7.81008
rclavicle -6.36111e-015 2.78299e-015
rhumerus -46.9452 5.20863 -92.2104
rradius 102.794
rwrist 5.30874
rhand -35.6415 -14.708
rfingers 7.12502
rthumb -8.76387 -44.506
lclavicle -6.36111e-015 2.78299e-015
lhumerus -61.0778 -12.3008 93.3449
lradius 78.9675
lwrist -8.83061
lhand -36.8725 13.2061
lfingers 7.12502
lthumb -9.95165 42.9509
rfemur -14.1579 -8.95969 15.9527
rtibia 81.9598
rfoot -152.821 -9.48179
rtoes -18.586
lfemur -35.6697 6.25376 -24.8588
ltibia 62.7897
lfoot -25.6563 -4.33933
ltoes -16.3666
79
root 6.7199 16.9007 20.6873 -168.702 3.0067 -181.085
lowerback 15.727 1.82636 -4.8992
upperback 1.78569 1.76552 -2.22817
thorax -6.97989 1.11276 -0.000828699
lowerneck -14.1567 -5.95633 -13.9406
upperneck 12.5225 -9.15454 19.9573
head 7.82764 -3.7562 7.98817
rclavicle 2.18663e-014 -4.85035e-014
rhumerus -48.1273 2.74283 -92.1702
rradius 98.1733
rwrist 5.15039
rhand -35.3224 -15.6467
rfingers 7.12502
rthumb -8.45592 -45.4574
lclavicle 2.18663e-014 -4.85035e-014
lhumerus -57.3926 -13.2435 93.7658
lradius 79.2744
lwrist -9.33545
lhand -36.988 13.3987
lfingers 7.12502
lthumb -10.063 43.1381
rfemur -18.2016 -10.0275 14.9211
rtibia 87.3383
rfoot -153.358 -8.68548
rtoes -18.2339
lfemur -33.6794 5.62487 -25.7128
ltibia 62.2245
lfoot -26.4945 -4.64826
ltoes -17.0416
80
root 6.71479 16.8355 20.365 -169.297 2.36384 -181.822
lowerback 16.1734 1.38622 -5.28367
upperback 2.16354 1.15797 -2.54483
thorax -6.79219 0.849615 0.00364222
lowerneck -14.2734 -5.90317 -13.8979
upperneck 11.9017 -8.9982 20.136
head 7.63151 -3.6742 8.04621
rclavicle -1.78906e-014 -4.77083e-015
rhumerus -49.1785 0.330073 -91.7584
rradius 93.6659
rwrist 5.05547
rhand -34.87 -16.1557
rfingers 7.12502
rthumb -8.0193 -45.9836
lclavicle -1.78906e-014 -4.77083e-015
lhumerus -53.4174 -14.5384 94.309
lradius 80.0759
lwrist -9.18345
lhand -37.3302 13.1672
lfingers 7.12502
lthumb -10.3932 42.8903
rfemur -21.8853 -11.2274 14.0653
rtibia 92.2039
rfoot -153.758 -7.4669
rtoes -17.5824
lfemur -31.2284 5.08921 -26.4079
ltibia 61.5054
lfoot -27.493 -4.459
ltoes -19.403
81
root 6.71514 16.7766 20.0333 -169.762 1.96356 -182.514
lowerback 16.427 1.04251 -5.75065
upperback 2.45552 0.666703 -2.87394
thorax -6.59354 0.642253 0.0203586
lowerneck -14.3633 -5.85998 -14.0751
upperneck 11.5109 -8.93129 20.5987
head 7.54808 -3.63342 8.24365
rclavicle -1.90833e-014 1.51076e-014
rhumerus -50.0425 -1.8043 -91.3611
rradius 88.8018
rwrist 4.60118
rhand -34.8678 -16.405
rfingers 7.12502
rthumb -8.01715 -46.2329
lclavicle -1.90833e-014 1.51076e-014
lhumerus -49.4948 -16.0434 94.5686
lradius 81.2929
lwrist -9.80205
lhand -37.0524 13.1876
lfingers 7.12502
lthumb -10.1252 42.924
rfemur -25.8255 -12.1128 13.4138
rtibia 96.6002
rfoot -154.159 -6.08988
rtoes -17.0434
lfemur -28.785 4.38852 -26.9676
ltibia 60.617
lfoot -28.2609 -4.776
ltoes -19.0295
82
root 6.71231 16.7224 19.6908 -169.88 1.78427 -183.167
lowerback 16.3001 0.777279 -6.30374
upperback 2.64585 0.275386 -3.16035
thorax -6.29852 0.475629 0.114823
lowerneck -14.6064 -5.82545 -14.0574
upperneck 11.2936 -8.87267 20.8015
head 7.5246 -3.58951 8.31346
rclavicle -1.07344e-014 0
rhumerus -51.2234 -3.34588 -90.9134
rradius 84.3269
rwrist 5.01985
rhand -35.8462 -16.7664
rfingers 7.12502
rthumb -8.96135 -46.5561
lclavicle -1.07344e-014 0
lhumerus -45.5422 -17.5384 94.6679
lradius 83.0936
lwrist -9.70061
lhand -36.5392 12.1465
lfingers 7.12502
lthumb -9.63009 41.9064
rfemur -30.227 -12.8923 12.8751
rtibia 100.459
rfoot -154.379 -4.61305
rtoes -17.1086
lfemur -26.6806 3.72585 -27.5319
ltibia 59.7186
lfoot -28.9342 -5.11165
ltoes -19.0761
83
root 6.71117 16.6834 19.3527 -169.872 1.01516 -183.319
lowerback 16.3632 0.285559 -6.22088
upperback 2.70982 -0.350198 -3.26057
thorax -6.23425 0.174539 0.0951919
lowerneck -14.8458 -5.78536 -13.9181
upperneck 11.2039 -8.84275 20.9091
head 7.53479 -3.55892 8.32616
rclavicle -3.57812e-015 -4.45278e-014
rhumerus -52.8612 -4.6176 -90.3519
rradius 80.8582
rwrist 6.38675
rhand -36.309 -16.4992
rfingers 7.12502
rthumb -9.40797 -46.2692
lclavicle -3.57812e-015 -4.45278e-014
lhumerus -41.4728 -18.3396 94.3368
lradius 84.8854
lwrist -12.6589
lhand -34.7987 12.0382
lfingers 7.12502
lthumb -7.95053 41.8687
rfemur -34.6366 -14.0187 13.2966
rtibia 103.621
rfoot -154.965 -3.31225
rtoes -15.3779
lfemur -24.8221 2.59302 -27.4461
ltibia 58.8155
lfoot -29.5106 -5.59578
ltoes -19.8168
